<svg version="1.0" xmlns="http://www.w3.org/2000/svg"
 width="1024.000000pt" height="1024.000000pt" viewBox="0 0 1024.000000 1024.000000"
 preserveAspectRatio="xMidYMid meet">

<g transform="translate(0.000000,1024.000000) scale(0.100000,-0.100000)"
fill="#000000" stroke="none">
<path d="M4875 8733 c-552 -45 -1048 -200 -1531 -479 -340 -195 -602 -405
-862 -688 -199 -216 -335 -396 -482 -635 -88 -143 -230 -422 -281 -549 -129
-319 -219 -683 -249 -997 -13 -139 -13 -640 0 -765 30 -289 109 -620 218 -920
53 -147 210 -461 302 -608 275 -436 657 -831 1075 -1109 441 -294 951 -506
1406 -583 421 -72 718 -77 1124 -19 992 141 1947 752 2510 1604 355 538 518
999 597 1690 16 139 15 542 -1 700 -68 659 -321 1295 -741 1860 -323 436 -637
723 -1090 995 -563 338 -1193 515 -1810 508 -80 -1 -163 -3 -185 -5z m493
-234 c117 -13 303 -44 392 -65 558 -135 1099 -418 1535 -804 247 -219 519
-560 712 -895 335 -579 488 -1162 470 -1790 -8 -286 -37 -499 -106 -785 l-18
-75 -257 -8 c-142 -5 -264 -6 -272 -3 -8 3 -124 171 -258 373 -203 307 -660
981 -1095 1618 -134 196 -130 190 -139 180 -5 -6 -59 -83 -121 -173 l-112
-163 16 -56 c9 -31 35 -102 57 -157 53 -132 98 -259 94 -263 -3 -3 -193 207
-249 275 -19 24 -27 28 -27 17 0 -10 29 -106 64 -214 76 -232 147 -463 144
-467 -5 -4 -156 188 -293 373 -71 95 -130 172 -131 170 -2 -1 31 -135 72 -297
41 -162 74 -299 74 -304 0 -47 -449 798 -505 949 -17 45 -44 92 -31 55 19 -60
37 -165 46 -280 6 -74 17 -184 25 -245 25 -199 28 -252 13 -235 -7 9 -98 130
-203 269 l-189 253 -24 -28 c-13 -16 -44 -53 -70 -83 -53 -62 -145 -175 -305
-373 -61 -76 -112 -136 -114 -135 -1 2 4 21 12 43 14 39 153 512 205 699 33
117 155 541 165 570 11 32 -30 -14 -232 -262 -63 -79 -117 -143 -118 -143 -1
0 97 198 218 440 121 242 223 440 226 440 3 -1 50 -71 103 -158 54 -86 139
-220 188 -297 50 -77 141 -223 202 -325 195 -324 230 -380 240 -380 5 0 7 8 4
18 -6 20 -78 482 -97 622 l-13 95 -131 205 c-72 113 -179 277 -237 365 -57 88
-133 204 -168 258 -34 53 -64 97 -66 97 -4 0 -119 -171 -125 -186 -4 -10 -42
-67 -444 -659 -112 -165 -258 -380 -324 -478 l-120 -179 -29 40 c-15 22 -64
97 -108 166 -43 69 -83 125 -87 123 -10 -3 -218 -303 -573 -827 -136 -201
-329 -484 -429 -630 -100 -146 -251 -368 -335 -493 l-153 -229 -256 7 c-141 4
-259 10 -262 14 -14 13 -70 275 -95 437 -30 198 -43 465 -32 699 19 459 135
886 355 1313 200 390 424 694 735 997 277 271 555 469 903 643 303 151 730
276 1080 316 148 17 472 20 603 5z m-1453 -2824 c37 -66 68 -125 68 -131 0
-11 -56 -99 -259 -402 -49 -74 -99 -150 -111 -170 -29 -48 -29 -38 3 45 34 91
194 577 194 589 -1 5 -91 -83 -201 -196 l-200 -205 67 105 c118 185 255 393
301 458 53 74 39 84 138 -93z m2674 -209 c118 -171 233 -354 291 -461 23 -44
56 -105 73 -135 l29 -55 -37 35 c-20 19 -93 99 -162 178 -68 78 -126 142 -128
142 -1 0 8 -35 20 -77 33 -112 75 -268 75 -276 0 -5 -18 -7 -41 -5 l-41 3 -40
95 c-57 137 -288 854 -288 895 0 10 140 -180 249 -339z m-1482 -129 c15 -19
97 -114 181 -211 l154 -177 31 41 32 41 28 -33 c85 -101 147 -180 147 -189 0
-5 -225 -9 -582 -9 l-582 0 50 53 c27 28 85 90 129 137 128 138 368 380 376
380 4 0 20 -15 36 -33z m-1902 -764 c10 -43 39 -172 66 -287 27 -116 49 -216
49 -223 0 -9 -17 -13 -58 -13 l-58 0 -15 63 -14 62 -70 0 -70 0 -13 -62 -14
-63 -65 0 c-62 0 -64 1 -57 23 9 27 73 270 115 432 17 66 32 126 34 133 3 8
28 12 79 12 l75 0 16 -77z m460 66 c25 -7 56 -27 81 -54 52 -54 64 -103 64
-258 -1 -152 -27 -210 -120 -257 -32 -16 -59 -20 -145 -20 l-105 0 0 300 0
300 93 0 c50 0 110 -5 132 -11z m358 -34 c27 -127 71 -302 77 -315 10 -17 8
-24 46 155 14 66 30 139 36 163 l10 42 60 0 60 0 -6 -42 c-4 -24 -35 -158 -69
-298 l-62 -255 -72 -3 c-61 -2 -72 0 -77 15 -6 19 -136 575 -136 581 0 1 28 2
62 0 l62 -3 9 -40z m725 -17 l-3 -63 -107 3 -108 4 0 -51 0 -51 95 0 95 0 0
-50 0 -50 -94 0 -94 0 -4 -72 c-3 -40 -3 -76 -1 -80 2 -5 56 -8 119 -8 l114 0
0 -60 0 -60 -175 0 -175 0 0 300 0 300 170 0 171 0 -3 -62z m320 -90 c55 -116
75 -149 82 -138 5 8 10 77 10 153 l0 137 55 0 55 0 0 -300 0 -300 -59 0 -58 0
-68 123 c-37 67 -71 126 -76 132 -5 5 -9 -46 -9 -123 l0 -132 -60 0 -60 0 0
248 c0 136 3 271 6 300 l7 52 51 0 52 0 72 -152z m672 87 l0 -65 -55 0 -55 0
0 -235 0 -235 -60 0 -60 0 0 235 0 234 -62 3 -63 3 -3 48 c-6 80 -14 77 183
77 l175 0 0 -65z m231 -145 c-1 -224 3 -247 52 -264 23 -8 31 -6 50 12 21 22
22 30 25 242 l3 220 60 0 59 0 0 -219 c0 -279 -12 -319 -105 -362 -110 -51
-228 8 -256 128 -10 44 -12 288 -2 386 l6 68 55 -3 54 -3 -1 -205z m634 191
c22 -10 50 -29 62 -42 69 -75 70 -213 1 -286 -20 -21 -20 -23 -3 -75 10 -29
28 -79 41 -110 13 -32 24 -62 24 -68 0 -5 -22 -10 -49 -10 -43 0 -52 4 -70 29
-12 16 -33 62 -49 102 -26 69 -30 74 -60 77 l-32 3 0 -100 0 -101 -60 0 -60 0
0 300 0 300 108 0 c83 0 116 -5 147 -19z m600 -46 l0 -60 -107 -3 -108 -3 0
-44 0 -45 95 0 95 0 0 -50 0 -50 -94 0 -93 0 -6 -72 c-2 -40 -3 -76 0 -80 2
-5 53 -8 114 -8 l109 0 0 -60 0 -60 -175 0 -175 0 0 300 0 300 173 -2 172 -3
0 -60z m183 -431 c24 -17 30 -62 10 -82 -29 -29 -98 -1 -98 40 0 21 34 58 53
58 7 0 23 -7 35 -16z m894 -313 c-5 -24 -133 -303 -191 -418 -33 -65 -88 -165
-123 -223 l-64 -105 -2815 -2 -2814 -3 -73 113 c-79 122 -192 343 -271 529
l-49 118 3191 2 c1756 2 3197 2 3202 2 6 -1 9 -7 7 -13z m-4131 -881 c14 -8
19 -21 19 -55 0 -41 -2 -45 -25 -45 -20 0 -25 5 -25 25 0 25 -1 25 -80 25
l-80 0 0 -30 c0 -26 -4 -30 -26 -30 -24 0 -25 2 -22 47 2 39 7 50 28 60 30 15
183 17 211 3z m2537 -2 c8 -8 -9 -33 -71 -100 -136 -147 -140 -153 -128 -177
11 -19 20 -11 122 99 82 89 117 120 135 120 15 0 24 -6 24 -16 0 -9 -49 -68
-110 -132 -60 -63 -110 -121 -110 -129 0 -36 46 -4 148 103 61 65 116 114 124
112 35 -12 14 -47 -100 -165 -125 -130 -138 -138 -194 -109 -28 15 -28 14 -98
-66 -38 -45 -70 -84 -70 -87 0 -4 22 -28 49 -55 44 -44 50 -47 70 -35 19 12
25 9 68 -31 27 -25 65 -60 85 -79 l37 -34 123 88 c206 148 305 232 506 432
l193 193 125 0 c68 0 124 -3 124 -8 0 -11 -183 -208 -288 -310 -287 -276 -593
-497 -897 -647 -347 -171 -661 -270 -1030 -326 -190 -29 -577 -37 -745 -15
-870 115 -1627 506 -2219 1147 -78 84 -141 156 -141 159 0 3 57 4 127 2 l127
-5 134 -138 c146 -151 328 -307 510 -438 122 -87 308 -201 329 -201 7 0 22 19
34 43 12 23 40 70 61 104 37 58 41 61 63 51 l25 -11 -60 -115 c-33 -64 -59
-116 -57 -117 1 -1 20 -9 42 -18 22 -9 85 -34 140 -57 111 -46 374 -128 528
-165 431 -104 846 -110 1281 -19 227 47 530 148 717 238 l86 41 -34 40 c-33
37 -35 44 -31 98 4 50 2 57 -14 57 -10 0 -38 18 -62 40 -24 22 -47 40 -52 40
-4 0 -29 -21 -55 -46 -31 -31 -53 -45 -63 -41 -26 10 -19 32 29 85 25 27 45
52 45 54 0 2 -24 25 -54 51 l-54 47 -58 -20 c-31 -11 -80 -20 -109 -20 -43 0
-62 6 -111 38 -79 52 -164 120 -164 132 0 24 44 6 139 -56 96 -63 104 -66 146
-61 24 4 58 12 76 19 l32 13 -59 39 c-107 71 -214 157 -214 171 0 21 10 19 66
-16 114 -73 213 -150 216 -170 3 -21 4 -20 31 4 19 19 27 36 27 60 0 31 -11
44 -104 128 -100 90 -122 119 -92 119 17 0 193 -132 223 -168 27 -32 32 -116
9 -147 -15 -20 -13 -23 63 -90 l33 -30 73 79 73 80 -20 38 c-14 26 -18 47 -13
65 7 29 220 253 240 253 6 0 16 -5 23 -12z m-1510 -73 c70 -58 92 -173 53
-275 -11 -28 -16 -50 -12 -48 21 9 95 103 106 135 l13 37 17 -54 c30 -99 30
-212 -1 -335 -7 -29 63 50 88 99 l20 40 14 -32 c41 -98 43 -250 4 -341 -22
-49 -92 -125 -140 -151 -21 -11 -22 -10 -16 6 17 44 26 108 20 146 -5 29 -32
78 -86 157 -49 73 -81 130 -84 154 -4 20 -10 37 -15 37 -12 0 -109 -123 -167
-213 -68 -104 -82 -166 -55 -248 11 -33 16 -59 12 -59 -22 0 -138 124 -163
174 -50 100 -46 227 11 325 l25 44 36 -67 37 -67 11 78 c14 98 25 119 118 220
41 45 80 91 86 102 16 31 14 114 -4 149 -9 17 -16 34 -16 37 0 9 55 -22 88
-50z m-899 -75 c59 -30 102 -70 122 -115 37 -81 65 -75 -356 -75 -293 0 -375
3 -375 13 0 6 11 35 24 62 34 74 79 108 171 128 11 3 100 5 198 6 158 1 182
-1 216 -19z m201 -264 l0 -24 -132 3 c-73 1 -271 3 -440 4 -301 1 -308 1 -308
21 0 20 7 20 440 20 l440 0 0 -24z m-100 -72 c0 -22 -72 -101 -122 -133 -79
-52 -133 -63 -251 -52 -142 14 -232 63 -278 154 l-19 37 335 0 c184 0 335 -3
335 -6z m1791 -197 c28 -72 29 -81 8 -123 -11 -23 -42 -63 -69 -88 -38 -36
-57 -46 -82 -46 -51 1 -88 40 -88 92 1 38 178 212 206 201 7 -2 18 -19 25 -36z
m-1784 -141 c35 -70 62 -134 59 -142 -3 -8 -16 -14 -29 -14 -19 0 -29 13 -56
68 -18 37 -41 79 -51 92 l-17 23 -64 -25 c-35 -14 -85 -29 -111 -32 l-48 -7 0
-65 0 -64 -30 0 -30 0 0 64 0 63 -51 7 c-52 7 -179 54 -179 67 0 3 6 11 13 17
9 8 29 6 73 -7 32 -10 78 -22 102 -26 l42 -7 0 51 c0 50 1 51 30 51 29 0 30
-1 30 -50 0 -27 3 -50 6 -50 18 0 181 42 193 49 11 7 10 14 -8 39 -27 38 -26
46 2 60 31 14 45 -5 124 -162z m801 68 c57 -78 72 -111 72 -155 0 -107 -129
-171 -200 -101 -39 40 -55 102 -40 161 12 52 98 188 109 175 4 -5 30 -41 59
-80z"/>
<path d="M5021 8303 c-5 -10 -11 -65 -12 -123 l-4 -105 63 -3 62 -3 0 109 c0
93 -3 111 -18 125 -25 23 -79 22 -91 0z"/>
<path d="M5457 8300 c-20 -16 -30 -39 -46 -113 -37 -172 -41 -151 32 -175 35
-12 66 -22 69 -22 3 0 8 17 11 38 3 20 14 79 25 130 24 108 19 134 -29 151
-39 14 -32 15 -62 -9z"/>
<path d="M4574 8284 c-16 -24 -16 -31 12 -152 16 -70 28 -130 26 -134 -1 -5 2
-8 6 -8 17 0 132 42 132 48 -1 35 -51 246 -60 257 -8 9 -30 15 -56 15 -36 0
-47 -5 -60 -26z"/>
<path d="M5926 8168 c-23 -21 -146 -282 -146 -310 0 -7 25 -32 55 -56 l55 -42
26 57 c89 200 125 297 120 319 -6 21 -51 54 -75 54 -5 0 -21 -10 -35 -22z"/>
<path d="M4095 8160 c-30 -33 -20 -77 54 -225 99 -198 88 -188 152 -135 30 24
55 45 57 46 6 4 -147 302 -163 318 -23 23 -78 21 -100 -4z"/>
<path d="M3634 7937 c-50 -43 -41 -64 116 -277 79 -107 157 -214 174 -237 16
-24 32 -43 35 -43 3 0 22 32 43 71 l36 71 -145 202 c-80 110 -154 209 -165
219 -28 24 -62 21 -94 -6z"/>
<path d="M6388 7933 c-14 -16 -67 -86 -117 -158 -50 -71 -110 -156 -132 -187
l-41 -56 37 -71 c21 -39 40 -71 44 -71 3 0 18 19 33 43 15 23 55 80 91 128
140 187 207 288 213 316 5 25 1 34 -26 56 -40 34 -70 34 -102 0z"/>
<path d="M3136 7559 c-30 -24 -34 -59 -9 -97 17 -27 181 -188 493 -483 125
-119 173 -158 195 -160 l30 -4 3 76 c2 57 -1 80 -12 90 -7 8 -101 100 -207
204 -370 364 -405 395 -437 395 -16 0 -41 -9 -56 -21z"/>
<path d="M6912 7572 c-6 -5 -147 -142 -312 -306 l-300 -298 0 -79 0 -78 33 5
c25 5 76 50 227 198 472 463 470 461 470 495 0 41 -31 71 -72 71 -18 0 -39 -4
-46 -8z"/>
<path d="M2657 7132 c-35 -36 -37 -89 -4 -119 24 -23 468 -273 618 -348 52
-26 134 -70 183 -98 l89 -50 48 54 c27 30 49 56 49 59 0 7 -55 39 -418 242
-166 92 -346 195 -400 228 -53 33 -106 60 -118 60 -11 0 -32 -13 -47 -28z"/>
<path d="M7410 7147 c-14 -7 -126 -72 -250 -143 -124 -72 -288 -166 -365 -209
-187 -104 -275 -158 -275 -168 0 -5 21 -32 46 -62 l47 -54 26 18 c14 10 87 51
161 92 74 40 232 127 350 194 118 67 245 138 282 158 37 21 74 47 83 60 22 32
19 74 -10 102 -27 28 -58 31 -95 12z"/>
<path d="M7630 6603 c-80 -24 -244 -76 -365 -113 -121 -38 -284 -88 -362 -111
-79 -23 -143 -46 -143 -51 0 -5 18 -37 41 -73 l40 -64 32 14 c26 12 298 94
862 262 44 13 90 30 102 38 26 18 38 54 29 90 -6 24 -52 56 -78 54 -7 0 -78
-21 -158 -46z"/>
<path d="M2311 6614 c-48 -61 -15 -111 97 -148 159 -52 885 -266 902 -266 9 0
90 117 90 129 0 4 -102 38 -227 75 -410 121 -496 147 -638 192 -165 52 -195
54 -224 18z"/>
<path d="M2032 6048 c-10 -13 -42 -124 -42 -147 0 -8 164 -10 597 -9 l598 3
27 65 c46 112 113 100 -571 100 -467 0 -601 -3 -609 -12z"/>
<path d="M6920 6053 c0 -5 13 -42 29 -83 l30 -75 600 -3 c331 -1 601 0 601 2
0 3 -11 41 -25 85 l-26 81 -604 0 c-333 0 -605 -3 -605 -7z"/>
<path d="M1945 5718 c-9 -26 -25 -104 -25 -125 l0 -23 604 0 603 0 7 46 c3 26
6 62 6 80 l0 34 -595 0 c-468 0 -597 -3 -600 -12z"/>
<path d="M7026 5663 c8 -79 19 -107 41 -99 8 3 278 6 600 6 l585 0 -7 43 c-4
23 -11 59 -16 80 l-10 37 -600 0 -600 0 7 -67z"/>
<path d="M1887 5335 c-4 -42 -5 -80 -2 -84 2 -4 233 -6 512 -4 l508 3 48 71
c27 39 47 72 45 74 -1 1 -251 6 -554 10 l-551 7 -6 -77z"/>
<path d="M7187 5402 c-23 -5 -20 -12 36 -93 l45 -64 508 2 c279 2 509 4 510 6
1 1 -1 34 -4 74 l-7 72 -535 4 c-294 2 -543 2 -553 -1z"/>
<path d="M1880 5000 l0 -80 404 0 403 0 45 68 c25 37 48 73 52 80 6 9 -87 12
-448 12 l-456 0 0 -80z"/>
<path d="M7395 5070 c-3 -5 15 -41 41 -80 l47 -70 403 0 404 0 0 80 0 80 -444
0 c-274 0 -447 -4 -451 -10z"/>
<path d="M1896 4698 c10 -98 8 -96 67 -103 28 -3 153 -5 277 -3 l225 3 53 78
53 77 -340 0 -340 0 5 -52z"/>
<path d="M7610 4742 c0 -5 23 -41 50 -80 l51 -72 274 0 c171 0 276 4 280 10 3
5 9 41 12 80 l6 70 -337 0 c-185 0 -336 -4 -336 -8z"/>
<path d="M2138 4422 l-207 -2 6 -38 c3 -20 11 -55 17 -77 l12 -40 139 0 140 0
53 78 c30 43 52 79 51 80 -2 1 -97 1 -211 -1z"/>
<path d="M7815 4422 c-2 -2 22 -39 52 -83 l55 -80 141 3 142 3 17 65 c10 36
17 71 16 79 -2 11 -44 14 -211 15 -115 0 -210 0 -212 -2z"/>
<path d="M3084 4365 l-20 -85 43 0 c28 0 43 4 42 13 0 18 -35 146 -40 152 -3
2 -14 -34 -25 -80z"/>
<path d="M3560 4345 l0 -175 28 0 c87 1 102 28 102 187 0 65 -4 123 -8 129
-13 19 -50 34 -86 34 l-36 0 0 -175z"/>
<path d="M6503 4522 l-33 -3 0 -70 0 -69 49 0 c40 0 53 4 65 22 20 28 20 67 1
95 -16 23 -36 30 -82 25z"/>
<path d="M2534 3778 c-63 -125 -164 -238 -252 -281 l-42 -21 37 -38 c30 -31
44 -38 75 -38 47 0 48 -11 8 -73 -16 -26 -30 -50 -30 -52 0 -3 25 -5 55 -5
l55 0 30 53 c17 28 45 81 62 116 l32 63 58 -116 58 -116 56 0 55 0 -30 54
c-35 61 -37 66 -16 66 32 0 96 34 115 60 l20 28 -45 22 c-63 31 -171 151 -223
249 -24 44 -45 81 -48 81 -2 0 -16 -24 -30 -52z"/>
<path d="M7555 3778 c-74 -137 -162 -237 -248 -280 l-49 -24 41 -37 c32 -29
49 -37 79 -37 21 0 41 -3 45 -6 3 -4 -10 -29 -29 -58 -18 -28 -34 -54 -34 -59
0 -4 26 -7 58 -5 l57 3 57 114 56 113 59 -113 58 -114 58 -3 58 -3 -31 54
c-36 64 -36 67 -9 67 33 0 84 28 108 60 l21 30 -37 15 c-82 35 -185 148 -246
273 -17 34 -34 62 -38 62 -3 0 -19 -24 -34 -52z"/>
<path d="M3414 3665 c-12 -30 6 -307 22 -337 33 -63 122 -77 178 -27 47 41 56
78 56 242 l0 137 -45 0 -45 0 0 -148 c0 -157 -4 -172 -47 -172 -38 0 -45 31
-42 179 l4 136 -38 3 c-27 2 -39 -1 -43 -13z"/>
<path d="M3790 3525 c0 -169 6 -195 56 -234 36 -28 102 -28 138 0 50 39 56 65
56 234 l0 155 -32 0 c-60 0 -61 -5 -56 -146 3 -71 2 -139 -3 -151 -11 -29 -54
-31 -69 -4 -5 11 -10 83 -10 160 l0 141 -40 0 -40 0 0 -155z"/>
<path d="M4213 3673 l-73 -4 0 -39 0 -39 48 -3 47 -3 5 -155 5 -155 38 -3 37
-3 0 160 0 160 48 3 47 3 0 40 0 40 -65 1 c-36 0 -98 -1 -137 -3z"/>
<path d="M4528 3511 c-1 -94 -2 -186 -2 -203 l-1 -33 75 -3 c89 -3 132 15 168
68 22 32 24 43 20 136 -7 156 -41 194 -180 202 l-78 5 -2 -172z m156 63 c12
-12 16 -37 16 -104 0 -80 -2 -90 -22 -104 -12 -9 -33 -16 -45 -16 -23 0 -23 2
-23 120 l0 120 29 0 c16 0 37 -7 45 -16z"/>
<path d="M5786 3669 c-72 -20 -96 -73 -96 -206 0 -113 15 -149 73 -176 75 -36
143 -12 178 61 18 37 21 57 17 140 -3 73 -8 104 -22 125 -31 46 -98 72 -150
56z m68 -95 c12 -11 16 -36 16 -95 0 -90 -10 -119 -43 -119 -40 0 -47 18 -47
115 0 93 8 115 41 115 10 0 25 -7 33 -16z"/>
<path d="M6164 3661 c-59 -27 -74 -65 -74 -193 0 -85 4 -109 20 -135 59 -97
204 -76 241 35 16 49 7 199 -15 240 -11 21 -33 41 -59 53 -52 23 -62 23 -113
0z m90 -93 c11 -16 16 -46 16 -105 0 -71 -3 -84 -21 -96 -27 -19 -58 -10 -70
20 -12 32 -12 145 1 177 12 33 53 35 74 4z"/>
<path d="M6500 3670 c-7 -4 -9 -79 -8 -201 l3 -194 40 0 40 0 3 63 c3 53 6 63
20 60 9 -2 31 -30 47 -63 29 -58 31 -60 73 -63 23 -2 42 -1 42 3 0 3 -16 37
-36 76 -30 60 -33 73 -21 82 69 57 59 172 -19 224 -20 13 -48 18 -101 18 -40
1 -78 -2 -83 -5z m148 -92 c7 -7 12 -24 12 -38 0 -34 -17 -50 -52 -50 -27 0
-28 2 -28 50 0 48 1 50 28 50 15 0 33 -5 40 -12z"/>
<path d="M6945 3661 c-23 -10 -46 -29 -53 -45 -17 -37 -15 -97 4 -124 16 -24
72 -55 116 -66 33 -7 46 -42 25 -63 -19 -19 -67 -10 -67 12 0 11 -13 15 -50
15 -58 0 -63 -12 -30 -66 41 -65 160 -73 212 -15 23 25 28 41 28 81 0 63 -25
93 -105 123 -66 25 -84 56 -46 77 23 12 61 -2 61 -22 0 -11 85 -6 97 6 11 11
-50 78 -83 92 -43 18 -61 17 -109 -5z"/>
<path d="M3081 3657 c-50 -25 -65 -60 -69 -161 -5 -109 6 -151 49 -192 26 -25
38 -29 84 -29 39 0 61 6 82 21 47 35 58 69 58 179 0 111 -14 148 -65 179 -33
19 -105 21 -139 3z m93 -80 c15 -11 20 -31 23 -88 6 -95 -6 -129 -46 -129 -41
0 -51 23 -51 119 0 101 25 134 74 98z"/>
<path d="M4957 3649 c-37 -28 -54 -88 -37 -129 17 -40 62 -78 105 -86 41 -7
58 -25 53 -56 -4 -32 -52 -38 -70 -9 -9 15 -23 21 -48 21 -54 0 -65 -11 -47
-46 23 -44 51 -65 95 -71 86 -12 162 43 162 118 0 52 -38 94 -110 117 -50 17
-55 22 -55 48 0 23 5 30 24 32 15 3 30 -3 40 -16 13 -15 25 -18 59 -14 38 4
42 7 37 26 -4 11 -22 36 -41 54 -29 28 -40 32 -88 32 -39 0 -60 -6 -79 -21z"/>
<path d="M5352 3654 c-42 -29 -52 -65 -52 -187 0 -101 2 -117 21 -141 60 -76
171 -73 219 7 16 26 20 50 20 135 0 112 -10 145 -56 181 -33 26 -118 29 -152
5z m106 -76 c19 -19 16 -193 -4 -212 -20 -21 -30 -20 -54 4 -17 17 -20 33 -20
108 0 93 8 112 45 112 12 0 26 -5 33 -12z"/>
<path d="M6521 2186 c-9 -11 -5 -19 20 -40 29 -25 33 -26 48 -11 14 14 13 18
-14 40 -35 29 -39 29 -54 11z"/>
<path d="M6047 2162 c-41 -42 -44 -53 -22 -72 12 -10 22 -6 56 28 41 41 48 74
19 80 -9 1 -32 -15 -53 -36z"/>
</g>
</svg>
